<?xml version="1.0" encoding="UTF-8" standalone="no"?>
<!-- Created with Inkscape (http://www.inkscape.org/) -->

<svg
   xmlns:dc="http://purl.org/dc/elements/1.1/"
   xmlns:cc="http://creativecommons.org/ns#"
   xmlns:rdf="http://www.w3.org/1999/02/22-rdf-syntax-ns#"
   xmlns:svg="http://www.w3.org/2000/svg"
   xmlns="http://www.w3.org/2000/svg"
   xmlns:sodipodi="http://sodipodi.sourceforge.net/DTD/sodipodi-0.dtd"
   xmlns:inkscape="http://www.inkscape.org/namespaces/inkscape"
   width="1024"
   height="500"
   viewBox="0 0 270.93333 132.29167"
   version="1.1"
   id="svg8"
   inkscape:version="0.92.2 (5c3e80d, 2017-08-06)"
   sodipodi:docname="application-banner.svg"
   inkscape:export-filename="C:\Users\robert\Desktop\CoinWatcher\application-banner.png"
   inkscape:export-xdpi="95.502403"
   inkscape:export-ydpi="95.502403">
  <defs
     id="defs2" />
  <sodipodi:namedview
     id="base"
     pagecolor="#ffffff"
     bordercolor="#666666"
     borderopacity="1.0"
     inkscape:pageopacity="0.0"
     inkscape:pageshadow="2"
     inkscape:zoom="0.98994949"
     inkscape:cx="498.78249"
     inkscape:cy="323.09715"
     inkscape:document-units="mm"
     inkscape:current-layer="layer1"
     showgrid="false"
     units="px"
     inkscape:window-width="2467"
     inkscape:window-height="1057"
     inkscape:window-x="-8"
     inkscape:window-y="-8"
     inkscape:window-maximized="1" />
  <metadata
     id="metadata5">
    <rdf:RDF>
      <cc:Work
         rdf:about="">
        <dc:format>image/svg+xml</dc:format>
        <dc:type
           rdf:resource="http://purl.org/dc/dcmitype/StillImage" />
        <dc:title></dc:title>
      </cc:Work>
    </rdf:RDF>
  </metadata>
  <g
     inkscape:label="Layer 1"
     inkscape:groupmode="layer"
     id="layer1"
     transform="translate(0,-164.70832)">
    <path
       style="fill:#ffb380;stroke:#000000;stroke-width:0.26458332px;stroke-linecap:butt;stroke-linejoin:miter;stroke-opacity:1"
       d="M 0,164.70157 V 297.26725 H 272.08038 V 164.4343 Z"
       id="path131"
       inkscape:connector-curvature="0" />
    <g
       transform="matrix(0.83458589,0,0,0.83458589,76.707626,36.951847)"
       id="layer1-3"
       inkscape:label="Layer 1">
      <path
         inkscape:connector-curvature="0"
         id="path3705"
         d="m 11.431684,197.48424 v 65.17894 l 56.446627,32.58949 56.446619,-32.58949 V 197.48424 L 67.878311,164.89477 Z"
         style="fill:#5d6c53;stroke:#000000;stroke-width:0.32596666;stroke-linecap:butt;stroke-linejoin:miter;stroke-miterlimit:4;stroke-dasharray:none;stroke-opacity:1" />
      <path
         inkscape:connector-curvature="0"
         id="path3707"
         d="m 11.431684,197.48424 56.446627,32.58948 56.446619,-32.58948"
         style="fill:none;stroke:#000000;stroke-width:0.32596666;stroke-linecap:butt;stroke-linejoin:miter;stroke-miterlimit:4;stroke-dasharray:none;stroke-opacity:1" />
      <path
         inkscape:connector-curvature="0"
         id="path3709"
         d="m 67.878311,230.07372 v 65.17895"
         style="fill:none;stroke:#000000;stroke-width:0.32596666;stroke-linecap:butt;stroke-linejoin:miter;stroke-miterlimit:4;stroke-dasharray:none;stroke-opacity:1" />
      <g
         style="stroke-width:0.42016321;stroke-miterlimit:4;stroke-dasharray:none"
         id="g6"
         transform="matrix(0.77580958,0.44791386,0,0.77580958,14.171393,205.96711)">
        <path
           id="path2"
           d="M 63.033,39.744 C 58.759,56.887 41.396,67.32 24.251,63.045 7.113,58.771 -3.32,41.407 0.956,24.265 5.228,7.12 22.591,-3.314 39.731,0.96 56.875,5.234 67.307,22.6 63.033,39.744 Z"
           inkscape:connector-curvature="0"
           style="fill:#f7931a;stroke-width:0.42016321;stroke-miterlimit:4;stroke-dasharray:none" />
        <path
           id="path4"
           d="M 46.103,27.444 C 46.74,23.186 43.498,20.897 39.065,19.37 l 1.438,-5.768 -3.511,-0.875 -1.4,5.616 c -0.923,-0.23 -1.871,-0.447 -2.813,-0.662 l 1.41,-5.653 -3.509,-0.875 -1.439,5.766 c -0.764,-0.174 -1.514,-0.346 -2.242,-0.527 l 0.004,-0.018 -4.842,-1.209 -0.934,3.75 c 0,0 2.605,0.597 2.55,0.634 1.422,0.355 1.679,1.296 1.636,2.042 l -1.638,6.571 c 0.098,0.025 0.225,0.061 0.365,0.117 -0.117,-0.029 -0.242,-0.061 -0.371,-0.092 l -2.296,9.205 c -0.174,0.432 -0.615,1.08 -1.609,0.834 0.035,0.051 -2.552,-0.637 -2.552,-0.637 l -1.743,4.019 4.569,1.139 c 0.85,0.213 1.683,0.436 2.503,0.646 l -1.453,5.834 3.507,0.875 1.439,-5.772 c 0.958,0.26 1.888,0.5 2.798,0.726 l -1.434,5.745 3.511,0.875 1.453,-5.823 c 5.987,1.133 10.489,0.676 12.384,-4.739 1.527,-4.36 -0.076,-6.875 -3.226,-8.515 2.294,-0.529 4.022,-2.038 4.483,-5.155 z m -8.022,11.249 c -1.085,4.36 -8.426,2.003 -10.806,1.412 l 1.928,-7.729 c 2.38,0.594 10.012,1.77 8.878,6.317 z m 1.086,-11.312 c -0.99,3.966 -7.1,1.951 -9.082,1.457 l 1.748,-7.01 c 1.982,0.494 8.365,1.416 7.334,5.553 z"
           inkscape:connector-curvature="0"
           style="fill:#ffffff;stroke-width:0.42016321;stroke-miterlimit:4;stroke-dasharray:none" />
      </g>
      <path
         id="path4-1"
         d="m 121.55593,231.21857 c 0,13.60307 -11.02719,30.99712 -24.630108,38.85077 -13.603073,7.85372 -24.630415,3.19289 -24.630415,-10.41019 0,-13.60293 11.027342,-30.99691 24.630415,-38.85065 13.602758,-7.85356 24.630108,-3.19286 24.630108,10.41007"
         style="fill:#bebebe;stroke-width:0.32596666;stroke-miterlimit:4;stroke-dasharray:none"
         inkscape:connector-curvature="0" />
      <path
         id="path6"
         d="m 116.32668,234.23798 c 0,10.71419 -8.68607,24.41591 -19.400858,30.6021 -10.714653,6.18611 -19.401307,2.51454 -19.401307,-8.19966 0,-10.71509 8.686654,-24.41654 19.401307,-30.60264 10.714948,-6.18629 19.400858,-2.51505 19.400858,8.2002"
         style="fill:#bebebe;stroke-width:0.32596666;stroke-miterlimit:4;stroke-dasharray:none"
         inkscape:connector-curvature="0" />
      <path
         id="path8"
         d="m 95.486245,252.84971 1.599814,-6.94765 3.787581,-3.57052 0.94211,-4.08422 -0.0321,-0.0692 -3.728336,3.51463 2.686286,-11.66593 -7.618418,4.3985 -3.513051,15.22859 -2.933153,2.76496 -0.969193,4.20936 2.930911,-2.76278 -2.070487,8.97494 20.275641,-11.70615 1.29983,-5.59221 -12.657355,7.30773"
         style="fill:#ffffff;stroke-width:0.32596666;stroke-miterlimit:4;stroke-dasharray:none"
         inkscape:connector-curvature="0" />
      <path
         inkscape:connector-curvature="0"
         id="path4602"
         d="M 48.121991,192.59582 76.345304,208.89055 87.63463,202.37266 59.411317,186.07792 Z"
         style="fill:#000000;stroke:#000000;stroke-width:0.32596666;stroke-linecap:butt;stroke-linejoin:miter;stroke-miterlimit:4;stroke-dasharray:none;stroke-opacity:1" />
      <ellipse
         style="opacity:1;fill:#ffcc00;stroke:#ffffff;stroke-width:0.35027397;stroke-miterlimit:4;stroke-dasharray:none;stroke-opacity:1"
         id="ellipse4612"
         cx="82.014565"
         cy="143.24539"
         rx="16.294737"
         ry="14.111657"
         transform="matrix(0.8660254,0.5,0,1,0,0)" />
      <ellipse
         transform="matrix(0.8660254,0.5,0,1,0,0)"
         ry="14.111657"
         rx="16.294737"
         cy="148.66685"
         cx="77.624039"
         id="path4610"
         style="opacity:1;fill:#ffdd55;stroke:#ffffff;stroke-width:0.35027397;stroke-miterlimit:4;stroke-dasharray:none;stroke-opacity:1" />
    </g>
  </g>
</svg>
